<?xml version="1.0" encoding="iso-8859-1"?>
<!-- Generator: Adobe Illustrator 19.0.0, SVG Export Plug-In . SVG Version: 6.00 Build 0)  -->
<svg version="1.1" id="Capa_1" xmlns="http://www.w3.org/2000/svg" xmlns:xlink="http://www.w3.org/1999/xlink" x="0px" y="0px"
	 viewBox="0 0 512.008 512.008" style="enable-background:new 0 0 512.008 512.008;" xml:space="preserve">
<g>
	<g>
		<path d="M495.518,16.052c-21.035-21.035-57.707-21.035-78.741,0L45.79,386.868c-1.003,1.024-1.835,2.24-2.347,3.584L0.776,497.119
			c-1.6,3.947-0.683,8.469,2.347,11.499c2.048,2.027,4.779,3.115,7.552,3.115c1.323,0,2.688-0.256,3.947-0.768l106.667-42.667
			c2.304-0.939,4.203-2.624,5.376-4.757c6.784-8.213,65.408-68.565,368.832-368.427c10.603-10.475,16.469-24.448,16.512-39.36
			C512.051,40.82,506.248,26.762,495.518,16.052z M480.478,79.924C197.107,360.01,128.542,429.151,111.966,449.055l-82.155,32.853
			l32.619-81.515l369.429-369.28c12.992-12.971,35.435-13.12,48.725,0.149c6.549,6.528,10.112,15.211,10.091,24.427
			C490.654,64.863,487.027,73.482,480.478,79.924z"/>
	</g>
</g>
<g>
	<g>
		<path d="M135.539,440.202l-64-64c-4.16-4.16-10.923-4.16-15.083,0s-4.16,10.923,0,15.083l64,64
			c2.091,2.069,4.821,3.115,7.552,3.115c2.731,0,5.461-1.045,7.531-3.115C139.699,451.124,139.699,444.362,135.539,440.202z"/>
	</g>
</g>
<g>
	<g>
		<path d="M434.206,141.535l-64-64c-4.16-4.16-10.923-4.16-15.083,0c-4.16,4.16-4.16,10.923,0,15.083l64,64
			c2.091,2.069,4.821,3.115,7.552,3.115s5.461-1.045,7.531-3.115C438.366,152.458,438.366,145.695,434.206,141.535z"/>
	</g>
</g>
<g>
</g>
<g>
</g>
<g>
</g>
<g>
</g>
<g>
</g>
<g>
</g>
<g>
</g>
<g>
</g>
<g>
</g>
<g>
</g>
<g>
</g>
<g>
</g>
<g>
</g>
<g>
</g>
<g>
</g>
</svg>
